# xmcd
#
# Track frame offsets: 
#        150
#        21293
#        37962
#        43928
#        50022
#        61547
#        77246
#        83229
#        103222
#        116182
#        125095
#        133797
#        145626
#        162447
#        168013
#        189116
#        196258
#        207774
#        211456
#        215356
#        217146
#        225110
#        236141
#        246314
#        257149
#        266780
#        281738
#        292865
#        299465
#        312843
#        327295
#        328519
#
# Disc length: 4567 seconds
#
# Revision: 4
# Processed by: cddbd v1.5.2PL0 Copyright (c) Steve Scherf et al.
# Submitted via: ExactAudioCopy v1.1
#
DISCID=e911d520
DTITLE=Brönner, Till - Höllentour (O.S.T.)
DYEAR=2004
DGENRE=Soundtrack
TTITLE0=Fanfare
TTITLE1=Prologue
TTITLE2=La première chute 1
TTITLE3=La première chute 2
TTITLE4=La presse
TTITLE5=Contre la montre 1
TTITLE6=Cola Barcardi
TTITLE7=La voix du tour
TTITLE8=Wanna be free
TTITLE9=Sur le pont
TTITLE10=Le souci d'Eule
TTITLE11=Savoir vivre
TTITLE12=Le bus
TTITLE13=Le pique-nique
TTITLE14=Souffrance dans la montagne
TTITLE15=Interlude
TTITLE16=Souffrance dans la montagne (Reprise)
TTITLE17=La voiture balai
TTITLE18=Le destin de Klödi
TTITLE19=21 mm
TTITLE20=Goudron brûlant
TTITLE21=Le matin à Marseille
TTITLE22=Contre la montre 2
TTITLE23=L'amitié
TTITLE24=La descente sans peur
TTITLE25=A travers le brouillard
TTITLE26=La course d'enfer
TTITLE27=Travail de nuit
TTITLE28=Contre la montre 3
TTITLE29=Champs Elysées
TTITLE30=Fanfare (Reprise)
TTITLE31=Savoir vivre (Reprise)
EXTD=YEAR: 2004
EXTT0=
EXTT1=
EXTT2=
EXTT3=
EXTT4=
EXTT5=
EXTT6=
EXTT7=
EXTT8=
EXTT9=
EXTT10=
EXTT11=
EXTT12=
EXTT13=
EXTT14=
EXTT15=
EXTT16=
EXTT17=
EXTT18=
EXTT19=
EXTT20=
EXTT21=
EXTT22=
EXTT23=
EXTT24=
EXTT25=
EXTT26=
EXTT27=
EXTT28=
EXTT29=
EXTT30=
EXTT31=
PLAYORDER=
